<?xml version="1.0" standalone="no"?><!DOCTYPE svg PUBLIC "-//W3C//DTD SVG 1.1//EN" "http://www.w3.org/Graphics/SVG/1.1/DTD/svg11.dtd"><svg t="1605170518845" class="icon" viewBox="0 0 1024 1024" version="1.1" xmlns="http://www.w3.org/2000/svg" p-id="2818" xmlns:xlink="http://www.w3.org/1999/xlink" width="200" height="200"><defs><style type="text/css"></style></defs><path d="M873.8 225.2 150.1 225.2c-28.8 0-52.2 23.4-52.2 52.2l0 469.1c0 28.8 23.4 52.2 52.2 52.2l723.7 0c28.8 0 52.3-23.4 52.3-52.2L926.1 277.5C926.1 248.7 902.6 225.2 873.8 225.2zM885.2 266.1l0 491.8L138.8 757.9 138.8 266.1 885.2 266.1z" p-id="2819" style="user-select: auto;"></path><path d="M168.9 327.3 168.9 327.3l314.4 278.2c7.9 6.8 18 10.6 28.7 10.6 10.6 0 20.8-3.8 28.7-10.6L855 327.2c8.9-7.8 9.8-21.4 2-30.2-7.8-8.9-21.4-9.8-30.3-2L512.6 573.2c-0.2 0.1-0.8 0.1-1 0L197.2 295.1c-8.9-7.8-22.4-6.9-30.2 2-3.8 4.3-5.7 9.8-5.3 15.5C162 318.3 164.6 323.6 168.9 327.3z" p-id="2820" style="user-select: auto;"></path></svg>