<?xml version="1.0" standalone="no"?><!DOCTYPE svg PUBLIC "-//W3C//DTD SVG 1.1//EN" "http://www.w3.org/Graphics/SVG/1.1/DTD/svg11.dtd"><svg t="1605234223789" class="icon" viewBox="0 0 1024 1024" version="1.1" xmlns="http://www.w3.org/2000/svg" p-id="1132" xmlns:xlink="http://www.w3.org/1999/xlink" width="300" height="300"><defs><style type="text/css"></style></defs><path d="M895.17 261.55a38.4 38.4 0 0 0-28.892 7.122L512 525.153l-354.202-256.41c-16.532-12.364-39.92-9.307-53.242 6.954l-0.866 1.172c-12.001 18.012-7.767 41.994 8.965 53.146l375.557 272.25c0.61 0.467 1.245 0.927 1.905 1.378l0.323 0.22a39.885 39.885 0 0 0 22.082 6.753 38.902 38.902 0 0 0 22.4-7.111l376.213-273.352a37.53 37.53 0 0 0 15.744-24.643c1.766-10.286-0.804-20.966-6.917-29.117-5.73-7.91-14.766-13.317-24.791-14.843z m97.22-126.116c-20.23-21.289-48.016-33.019-78.25-33.019H109.701a107.249 107.249 0 0 0-76.923 32.733C11.94 155.11 0 183.209 0 212.306v599.419c0 29.547 11.325 56.514 32.773 77.998 20.265 20.25 48.364 31.862 77.082 31.862h804.29c29.087 0 55.962-10.921 77.712-31.596l0.542-0.543c20.383-21.463 31.606-49.07 31.606-77.721V212.28c-0.046-29.076-11.356-56.448-31.616-76.846zM947.24 811.72c0 8.765-3.45 17.679-8.934 23.188-6.457 6.405-15.166 10.015-24.167 9.887H109.855c-8.766 0-16.789-3.405-23.225-9.84l-0.542-0.518c-5.827-5.263-9.303-13.757-9.303-22.717V212.306c0-8.904 3.312-16.732 9.845-23.265 6.436-6.436 14.464-9.836 23.225-9.836h804.423c8.92 0 17.326 3.4 23.732 9.59 4.28 4.854 9.231 12.79 9.231 23.5V811.72z" p-id="1133" fill="#ffffff"></path></svg>