<?xml version="1.0" standalone="no"?><!DOCTYPE svg PUBLIC "-//W3C//DTD SVG 1.1//EN" "http://www.w3.org/Graphics/SVG/1.1/DTD/svg11.dtd"><svg t="1605171537711" class="icon" viewBox="0 0 1024 1024" version="1.1" xmlns="http://www.w3.org/2000/svg" p-id="4506" xmlns:xlink="http://www.w3.org/1999/xlink" width="200" height="200"><defs><style type="text/css"></style></defs><path d="M66.7 512.7c0 246.5 199.8 446.4 446.3 446.4s446.4-199.8 446.4-446.3v-0.1c0-246.5-199.8-446.4-446.3-446.4S66.7 266.1 66.7 512.7c0-0.1 0 0 0 0z" fill="#BABABA" p-id="4507" style="user-select: auto;"></path><path d="M643.5 249.4c30.7 0 55.6 25.8 55.6 57.6v413c0 31.8-24.9 57.6-55.6 57.6H377.8c-30.7 0-55.6-25.8-55.6-57.6V307c0-31.8 24.9-57.6 55.6-57.6h265.7zM510.7 611.1c-18.8 0-34 15.8-34 35.2s15.2 35.2 34 35.2 34-15.8 34-35.2-15.3-35.2-34-35.2z m0 0" fill="#FFFFFF" p-id="4508" style="user-select: auto;"></path></svg>