<?xml version="1.0" standalone="no"?><!DOCTYPE svg PUBLIC "-//W3C//DTD SVG 1.1//EN" "http://www.w3.org/Graphics/SVG/1.1/DTD/svg11.dtd"><svg t="1605234260507" class="icon" viewBox="0 0 1024 1024" version="1.1" xmlns="http://www.w3.org/2000/svg" p-id="2635" xmlns:xlink="http://www.w3.org/1999/xlink" width="300" height="300"><defs><style type="text/css"></style></defs><path d="M711.621 128c28.353 0 51.42 23.495 51.42 52.375v663.25c0 28.88-23.067 52.375-51.42 52.375H312.378c-28.353 0-51.419-23.495-51.419-52.375v-663.25c0-28.88 23.067-52.375 51.419-52.375h399.243m0-64H312.378c-63.646 0-115.419 52.207-115.419 116.375v663.25c0 64.168 51.774 116.375 115.419 116.375h399.243c63.647 0 115.42-52.207 115.42-116.375v-663.25C827.041 116.207 775.267 64 711.621 64z" p-id="2636" fill="#ffffff"></path><path d="M606.209 832H417.792c-17.664 0-32.001-14.336-32.001-32.001 0-17.664 14.337-31.999 32.001-31.999h188.417c17.664 0 31.999 14.336 31.999 31.999 0.001 17.665-14.318 32.001-31.999 32.001z" p-id="2637" fill="#ffffff"></path></svg>