<?xml version="1.0" standalone="no"?><!DOCTYPE svg PUBLIC "-//W3C//DTD SVG 1.1//EN" "http://www.w3.org/Graphics/SVG/1.1/DTD/svg11.dtd"><svg t="1605170863632" class="icon" viewBox="0 0 1024 1024" version="1.1" xmlns="http://www.w3.org/2000/svg" p-id="3657" xmlns:xlink="http://www.w3.org/1999/xlink" width="200" height="200"><defs><style type="text/css"></style></defs><path d="M745.6 32H278.4C230.4 32 192 73.6 192 121.6v780.8C192 950.4 230.4 992 278.4 992h464c48 0 86.4-41.6 86.4-89.6V121.6C832 73.6 793.6 32 745.6 32z m28.8 870.4c0 16-12.8 28.8-28.8 28.8H278.4c-16 0-28.8-12.8-28.8-28.8V121.6c0-16 12.8-28.8 28.8-28.8h48l22.4 32c9.6 16 28.8 25.6 48 25.6h227.2c19.2 0 38.4-9.6 48-25.6l22.4-32h48c16 0 28.8 12.8 28.8 28.8v780.8z" p-id="3658" style="user-select: auto;"></path><path d="M598.4 841.6h-176c-16 0-28.8 12.8-28.8 28.8s12.8 28.8 28.8 28.8h176c16 0 28.8-12.8 28.8-28.8s-12.8-28.8-28.8-28.8z" p-id="3659" style="user-select: auto;"></path></svg>